<svg id="P" width="54" height="76" viewBox="0 0 54 76" fill="none" xmlns="http://www.w3.org/2000/svg">
<path d="M0 75.6364V0H26.9602C32.8447 0 37.7197 1.07102 41.5852 3.21307C45.4508 5.35511 48.3437 8.28504 50.2642 12.0028C52.1847 15.696 53.1449 19.857 53.1449 24.4858C53.1449 29.1392 52.1723 33.3248 50.2273 37.0426C48.3068 40.7358 45.4015 43.6657 41.5114 45.8324C37.6458 47.9744 32.7831 49.0455 26.9233 49.0455H11.4119V39.3693H25.8892C29.607 39.3693 32.6231 38.7292 34.9375 37.4489C37.2519 36.1439 38.9508 34.3712 40.0341 32.1307C41.1174 29.8902 41.6591 27.3419 41.6591 24.4858C41.6591 21.6297 41.1174 19.0938 40.0341 16.8778C38.9508 14.6619 37.2396 12.9261 34.9006 11.6705C32.5862 10.4148 29.5331 9.78693 25.7415 9.78693H11.4119V43.6364V75.6364H0Z" fill="#1E1E1E"/>
</svg>
